<svg width="207" height="20" viewBox="0 0 207 20" fill="none" xmlns="http://www.w3.org/2000/svg">
<path d="M0 19.296L7.416 2.496H12.096L19.536 19.296H14.592L8.784 4.824H10.656L4.848 19.296H0ZM4.056 16.032L5.28 12.528H13.488L14.712 16.032H4.056Z" fill="black"/>
<path d="M20.8832 19.296V2.496H28.8272C30.6832 2.496 32.3152 2.84 33.7232 3.528C35.1312 4.216 36.2272 5.184 37.0112 6.432C37.8112 7.68 38.2112 9.168 38.2112 10.896C38.2112 12.608 37.8112 14.096 37.0112 15.36C36.2272 16.608 35.1312 17.576 33.7232 18.264C32.3152 18.952 30.6832 19.296 28.8272 19.296H20.8832ZM25.6352 15.504H28.6352C29.5952 15.504 30.4272 15.328 31.1312 14.976C31.8512 14.608 32.4112 14.08 32.8112 13.392C33.2112 12.688 33.4112 11.856 33.4112 10.896C33.4112 9.92 33.2112 9.088 32.8112 8.4C32.4112 7.712 31.8512 7.192 31.1312 6.84C30.4272 6.472 29.5952 6.288 28.6352 6.288H25.6352V15.504Z" fill="black"/>
<path d="M44.0529 19.296V6.264H38.8929V2.496H53.9409V6.264H48.8049V19.296H44.0529Z" fill="black"/>
<path d="M55.7113 19.296V2.496H59.6233L66.5833 13.92H64.5193L71.2873 2.496H75.1993L75.2473 19.296H70.8793L70.8313 9.144H71.5753L66.5113 17.64H64.3993L59.1913 9.144H60.1033V19.296H55.7113Z" fill="black"/>
<path d="M85.5941 19.296V2.496H89.5061L96.4661 13.92H94.4021L101.17 2.496H105.082L105.13 19.296H100.762L100.714 9.144H101.458L96.3941 17.64H94.2821L89.0741 9.144H89.9861V19.296H85.5941Z" fill="black"/>
<path d="M108.277 19.296V6.288H112.837V19.296H108.277ZM110.557 4.848C109.725 4.848 109.053 4.616 108.541 4.152C108.029 3.688 107.773 3.112 107.773 2.424C107.773 1.736 108.029 1.16 108.541 0.696C109.053 0.232 109.725 0 110.557 0C111.389 0 112.061 0.224 112.573 0.672C113.085 1.104 113.341 1.664 113.341 2.352C113.341 3.072 113.085 3.672 112.573 4.152C112.077 4.616 111.405 4.848 110.557 4.848Z" fill="black"/>
<path d="M124.272 6.072C125.28 6.072 126.192 6.28 127.008 6.696C127.824 7.096 128.464 7.72 128.928 8.568C129.408 9.416 129.648 10.512 129.648 11.856V19.296H125.088V12.6C125.088 11.672 124.896 11 124.512 10.584C124.144 10.152 123.624 9.936 122.952 9.936C122.472 9.936 122.032 10.048 121.632 10.272C121.232 10.48 120.92 10.808 120.696 11.256C120.472 11.704 120.36 12.288 120.36 13.008V19.296H115.8V6.288H120.144V9.984L119.304 8.904C119.8 7.96 120.48 7.256 121.344 6.792C122.208 6.312 123.184 6.072 124.272 6.072Z" fill="black"/>
<path d="M139.491 19.512C137.955 19.512 136.611 19.224 135.459 18.648C134.323 18.056 133.435 17.256 132.795 16.248C132.171 15.224 131.859 14.064 131.859 12.768C131.859 11.472 132.163 10.32 132.771 9.312C133.395 8.288 134.251 7.496 135.339 6.936C136.427 6.36 137.651 6.072 139.011 6.072C140.291 6.072 141.459 6.336 142.515 6.864C143.571 7.376 144.411 8.136 145.035 9.144C145.659 10.152 145.971 11.376 145.971 12.816C145.971 12.976 145.963 13.16 145.947 13.368C145.931 13.576 145.915 13.768 145.899 13.944H135.603V11.544H143.475L141.747 12.216C141.763 11.624 141.651 11.112 141.411 10.68C141.187 10.248 140.867 9.912 140.451 9.672C140.051 9.432 139.579 9.312 139.035 9.312C138.491 9.312 138.011 9.432 137.595 9.672C137.195 9.912 136.883 10.256 136.659 10.704C136.435 11.136 136.323 11.648 136.323 12.24V12.936C136.323 13.576 136.451 14.128 136.707 14.592C136.979 15.056 137.363 15.416 137.859 15.672C138.355 15.912 138.947 16.032 139.635 16.032C140.275 16.032 140.819 15.944 141.267 15.768C141.731 15.576 142.187 15.288 142.635 14.904L145.035 17.4C144.411 18.088 143.643 18.616 142.731 18.984C141.819 19.336 140.739 19.512 139.491 19.512Z" fill="black"/>
<path d="M154.721 19.512C153.281 19.512 151.993 19.224 150.857 18.648C149.737 18.072 148.857 17.28 148.217 16.272C147.577 15.248 147.257 14.08 147.257 12.768C147.257 11.456 147.577 10.296 148.217 9.288C148.857 8.28 149.737 7.496 150.857 6.936C151.993 6.36 153.281 6.072 154.721 6.072C156.193 6.072 157.465 6.384 158.537 7.008C159.609 7.632 160.369 8.512 160.817 9.648L157.289 11.448C156.985 10.84 156.609 10.4 156.161 10.128C155.713 9.84 155.225 9.696 154.697 9.696C154.169 9.696 153.689 9.816 153.257 10.056C152.825 10.296 152.481 10.648 152.225 11.112C151.985 11.56 151.865 12.112 151.865 12.768C151.865 13.44 151.985 14.008 152.225 14.472C152.481 14.936 152.825 15.288 153.257 15.528C153.689 15.768 154.169 15.888 154.697 15.888C155.225 15.888 155.713 15.752 156.161 15.48C156.609 15.192 156.985 14.744 157.289 14.136L160.817 15.936C160.369 17.072 159.609 17.952 158.537 18.576C157.465 19.2 156.193 19.512 154.721 19.512Z" fill="black"/>
<path d="M162.534 19.296V6.288H166.878V10.08L166.23 9C166.614 8.024 167.238 7.296 168.102 6.816C168.966 6.32 170.014 6.072 171.246 6.072V10.176C171.038 10.144 170.854 10.128 170.694 10.128C170.55 10.112 170.39 10.104 170.214 10.104C169.286 10.104 168.534 10.36 167.958 10.872C167.382 11.368 167.094 12.184 167.094 13.32V19.296H162.534Z" fill="black"/>
<path d="M180.299 19.296V16.872L179.987 16.272V11.808C179.987 11.088 179.763 10.536 179.315 10.152C178.883 9.752 178.187 9.552 177.227 9.552C176.603 9.552 175.971 9.656 175.331 9.864C174.691 10.056 174.147 10.328 173.699 10.68L172.163 7.584C172.899 7.104 173.779 6.736 174.803 6.48C175.843 6.208 176.875 6.072 177.899 6.072C180.011 6.072 181.643 6.56 182.795 7.536C183.963 8.496 184.547 10.008 184.547 12.072V19.296H180.299ZM176.459 19.512C175.419 19.512 174.539 19.336 173.819 18.984C173.099 18.632 172.547 18.152 172.163 17.544C171.795 16.936 171.611 16.256 171.611 15.504C171.611 14.704 171.811 14.016 172.211 13.44C172.627 12.848 173.259 12.4 174.107 12.096C174.955 11.776 176.051 11.616 177.395 11.616H180.467V13.992H178.019C177.283 13.992 176.763 14.112 176.459 14.352C176.171 14.592 176.027 14.912 176.027 15.312C176.027 15.712 176.179 16.032 176.483 16.272C176.787 16.512 177.203 16.632 177.731 16.632C178.227 16.632 178.675 16.512 179.075 16.272C179.491 16.016 179.795 15.632 179.987 15.12L180.611 16.8C180.371 17.696 179.899 18.376 179.195 18.84C178.507 19.288 177.595 19.512 176.459 19.512Z" fill="black"/>
<path d="M187.953 19.296V6.432C187.953 4.864 188.417 3.616 189.345 2.688C190.289 1.744 191.633 1.272 193.377 1.272C193.937 1.272 194.489 1.328 195.033 1.44C195.577 1.552 196.033 1.72 196.401 1.944L195.273 5.16C195.081 5.048 194.865 4.96 194.625 4.896C194.385 4.816 194.145 4.776 193.905 4.776C193.425 4.776 193.049 4.92 192.777 5.208C192.521 5.48 192.393 5.904 192.393 6.48V7.416L192.513 9.312V19.296H187.953ZM186.057 10.176V6.768H195.489V10.176H186.057Z" fill="black"/>
<path d="M202.983 19.512C201.319 19.512 200.023 19.104 199.095 18.288C198.167 17.456 197.703 16.208 197.703 14.544V3.384H202.263V14.496C202.263 14.96 202.391 15.328 202.647 15.6C202.903 15.856 203.231 15.984 203.631 15.984C204.175 15.984 204.639 15.848 205.023 15.576L206.151 18.768C205.767 19.024 205.295 19.208 204.735 19.32C204.175 19.448 203.591 19.512 202.983 19.512ZM195.807 10.176V6.768H205.239V10.176H195.807Z" fill="black"/>
</svg>
