<svg width="107" height="18" viewBox="0 0 107 18" fill="none" xmlns="http://www.w3.org/2000/svg">
<path d="M4.248 13.416L3.984 8.088L11.208 0.336H16.44L9.24 8.136L6.6 10.896L4.248 13.416ZM0 17.136V0.336H4.704V17.136H0ZM11.28 17.136L5.808 10.2L8.904 6.888L16.8 17.136H11.28Z" fill="black"/>
<path d="M23.5993 17.472C22.2233 17.472 20.8953 17.304 19.6153 16.968C18.3513 16.616 17.3193 16.168 16.5193 15.624L18.0793 12.12C18.8313 12.6 19.6953 13 20.6713 13.32C21.6633 13.624 22.6473 13.776 23.6233 13.776C24.2793 13.776 24.8073 13.72 25.2073 13.608C25.6073 13.48 25.8953 13.32 26.0713 13.128C26.2633 12.92 26.3593 12.68 26.3593 12.408C26.3593 12.024 26.1833 11.72 25.8313 11.496C25.4793 11.272 25.0233 11.088 24.4633 10.944C23.9033 10.8 23.2793 10.656 22.5913 10.512C21.9193 10.368 21.2393 10.184 20.5513 9.96C19.8793 9.736 19.2633 9.448 18.7033 9.096C18.1433 8.728 17.6873 8.256 17.3353 7.68C16.9833 7.088 16.8073 6.344 16.8073 5.448C16.8073 4.44 17.0793 3.528 17.6233 2.712C18.1833 1.896 19.0153 1.24 20.1193 0.744C21.2233 0.248 22.5993 0 24.2473 0C25.3513 0 26.4313 0.128 27.4873 0.384001C28.5593 0.624001 29.5113 0.984 30.3433 1.464L28.8793 4.992C28.0793 4.56 27.2873 4.24 26.5033 4.032C25.7193 3.808 24.9593 3.696 24.2233 3.696C23.5673 3.696 23.0393 3.768 22.6393 3.912C22.2393 4.04 21.9513 4.216 21.7753 4.44C21.5993 4.664 21.5113 4.92 21.5113 5.208C21.5113 5.576 21.6793 5.872 22.0153 6.096C22.3673 6.304 22.8233 6.48 23.3833 6.624C23.9593 6.752 24.5833 6.888 25.2553 7.032C25.9433 7.176 26.6233 7.36 27.2953 7.584C27.9833 7.792 28.6073 8.08 29.1673 8.448C29.7273 8.8 30.1753 9.272 30.5113 9.864C30.8633 10.44 31.0393 11.168 31.0393 12.048C31.0393 13.024 30.7593 13.928 30.1993 14.76C29.6553 15.576 28.8313 16.232 27.7273 16.728C26.6393 17.224 25.2633 17.472 23.5993 17.472Z" fill="black"/>
<path d="M33.2344 17.136V0.336H40.9144C42.4504 0.336 43.7704 0.584 44.8744 1.08C45.9944 1.576 46.8584 2.296 47.4664 3.24C48.0744 4.168 48.3784 5.272 48.3784 6.552C48.3784 7.816 48.0744 8.912 47.4664 9.84C46.8584 10.768 45.9944 11.488 44.8744 12C43.7704 12.496 42.4504 12.744 40.9144 12.744H35.8744L37.9864 10.68V17.136H33.2344ZM37.9864 11.184L35.8744 9H40.6264C41.6184 9 42.3544 8.784 42.8344 8.352C43.3304 7.92 43.5784 7.32 43.5784 6.552C43.5784 5.768 43.3304 5.16 42.8344 4.728C42.3544 4.296 41.6184 4.08 40.6264 4.08H35.8744L37.9864 1.896V11.184Z" fill="black"/>
<path d="M57.9141 17.136V0.336H65.8581C67.7141 0.336 69.3461 0.68 70.7541 1.368C72.1621 2.056 73.2581 3.024 74.0421 4.272C74.8421 5.52 75.2421 7.008 75.2421 8.736C75.2421 10.448 74.8421 11.936 74.0421 13.2C73.2581 14.448 72.1621 15.416 70.7541 16.104C69.3461 16.792 67.7141 17.136 65.8581 17.136H57.9141ZM62.6661 13.344H65.6661C66.6261 13.344 67.4581 13.168 68.1621 12.816C68.8821 12.448 69.4421 11.92 69.8421 11.232C70.2421 10.528 70.4421 9.696 70.4421 8.736C70.4421 7.76 70.2421 6.928 69.8421 6.24C69.4421 5.552 68.8821 5.032 68.1621 4.68C67.4581 4.312 66.6261 4.128 65.6661 4.128H62.6661V13.344Z" fill="black"/>
<path d="M84.3422 17.352C82.8062 17.352 81.4622 17.064 80.3102 16.488C79.1742 15.896 78.2862 15.096 77.6462 14.088C77.0222 13.064 76.7102 11.904 76.7102 10.608C76.7102 9.312 77.0142 8.16 77.6222 7.152C78.2462 6.128 79.1022 5.336 80.1902 4.776C81.2782 4.2 82.5022 3.912 83.8622 3.912C85.1422 3.912 86.3102 4.176 87.3662 4.704C88.4222 5.216 89.2622 5.976 89.8862 6.984C90.5102 7.992 90.8222 9.216 90.8222 10.656C90.8222 10.816 90.8142 11 90.7982 11.208C90.7822 11.416 90.7662 11.608 90.7502 11.784H80.4542V9.384H88.3262L86.5982 10.056C86.6142 9.464 86.5022 8.952 86.2622 8.52C86.0382 8.088 85.7182 7.752 85.3022 7.512C84.9022 7.272 84.4302 7.152 83.8862 7.152C83.3422 7.152 82.8622 7.272 82.4462 7.512C82.0462 7.752 81.7342 8.096 81.5102 8.544C81.2862 8.976 81.1742 9.488 81.1742 10.08V10.776C81.1742 11.416 81.3022 11.968 81.5582 12.432C81.8302 12.896 82.2142 13.256 82.7102 13.512C83.2062 13.752 83.7982 13.872 84.4862 13.872C85.1262 13.872 85.6702 13.784 86.1182 13.608C86.5822 13.416 87.0382 13.128 87.4862 12.744L89.8862 15.24C89.2622 15.928 88.4942 16.456 87.5822 16.824C86.6702 17.176 85.5902 17.352 84.3422 17.352Z" fill="black"/>
<path d="M96.3142 17.136L90.9622 4.128H95.6423L99.9143 15H97.5622L102.05 4.128H106.394L101.018 17.136H96.3142Z" fill="black"/>
</svg>
